<?xml version="1.0" encoding="UTF-8"?>
<svg id="Layer_1" xmlns="http://www.w3.org/2000/svg" version="1.1" viewBox="0 0 300 100">
  <!-- Generator: Adobe Illustrator 29.8.3, SVG Export Plug-In . SVG Version: 2.1.1 Build 3)  -->
  <defs>
    <style>
      .st0 {
        fill: #2563eb;
      }
    </style>
  </defs>
  <g>
    <path d="M117.03,51.47c0-7.49,2.68-13.96,8.03-19.42,5.31-5.38,11.75-8.07,19.34-8.07,5.55,0,10.61,1.54,15.18,4.61s7.9,7.18,10.01,12.31c1.39,3.37,2.08,6.89,2.08,10.56,0,7.79-2.64,14.3-7.92,19.53-5.41,5.38-11.85,8.07-19.34,8.07s-13.86-2.72-19.27-8.16-8.11-11.92-8.11-19.44ZM130.61,51.4c0,3.94,1.32,7.33,3.96,10.16s5.92,4.24,9.84,4.24,7.17-1.44,9.82-4.31c2.58-2.78,3.87-6.14,3.87-10.08s-1.28-7.33-3.83-10.08c-2.63-2.83-5.91-4.24-9.86-4.24s-7.2,1.4-9.84,4.2-3.96,6.17-3.96,10.12Z"/>
    <path d="M177.29,78.14V24.87h12.05v53.27h-12.05Z"/>
    <path d="M196.34,78.14V24.87h12.05v53.27h-12.05Z"/>
    <path d="M226.73,40.42v21.43c0,1.69.5,3.09,1.51,4.22,1,1.13,2.34,1.69,4.01,1.69s3.01-.58,4.03-1.75c.97-1.09,1.46-2.48,1.46-4.17v-21.43h11.83v19.53c0,9.05-3.81,15.14-11.42,18.26v16.14h-11.83v-16.14c-7.56-3.2-11.35-9.29-11.35-18.26v-19.53h11.75Z"/>
    <path d="M254.59,59.24c0-5.33,1.88-9.96,5.65-13.87,3.65-3.79,8.11-5.69,13.39-5.69s9.84,1.91,13.52,5.73c3.68,3.82,5.52,8.43,5.52,13.84,0,2.68-.47,5.2-1.41,7.55-1.98,4.96-5.41,8.47-10.27,10.53-2.33.99-4.79,1.49-7.37,1.49-5.21,0-9.68-1.92-13.43-5.77s-5.62-8.44-5.62-13.8ZM266.79,59.17c0,2.03.62,3.79,1.86,5.28,1.34,1.61,3,2.42,4.98,2.42s3.68-.79,5.02-2.38c1.29-1.51,1.93-3.29,1.93-5.32s-.66-3.83-1.97-5.38-2.98-2.32-4.98-2.32-3.65.81-4.98,2.42c-1.24,1.49-1.86,3.25-1.86,5.28Z"/>
  </g>
  <path class="st0" d="M95.63,49.45c0,1.78-.13,3.62-.38,5.33-1.65-9.65-10.16-17.01-20.31-17.01-11.43,0-20.7,9.27-20.7,20.7s9.27,20.76,20.7,20.76c4.89,0,9.4-1.71,12.89-4.57-8.06,11.68-21.46,19.3-36.69,19.3-21.9,0-40.12-15.81-43.8-36.69,13.84,2.41,28.57-1.71,39.23-12.38s14.79-25.39,12.32-39.23c20.89,3.68,36.76,21.9,36.76,43.8Z"/>
</svg>